<?xml version="1.0" encoding="UTF-8" standalone="no" ?>
<!DOCTYPE svg PUBLIC "-//W3C//DTD SVG 1.1//EN" "http://www.w3.org/Graphics/SVG/1.1/DTD/svg11.dtd">
<svg xmlns="http://www.w3.org/2000/svg" xmlns:xlink="http://www.w3.org/1999/xlink" version="1.1" width="500" height="500" viewBox="0 0 500 500" xml:space="preserve">
<desc>Created with Fabric.js 4.6.0</desc>
<defs>
</defs>
<g transform="matrix(4.4 0 0 11.93 254.93 250)" id="_TjfIeiaZN4XBdCguGgcr"  >
<path style="stroke: none; stroke-width: 1; stroke-dasharray: none; stroke-linecap: butt; stroke-dashoffset: 0; stroke-linejoin: miter; stroke-miterlimit: 4; fill: rgb(252,134,29); fill-rule: nonzero; opacity: 1;" vector-effect="non-scaling-stroke"  transform=" translate(-42.5, -20.9)" d="M 62.03208 17.0441 C 62.03208 17.55432 60.9269 17.96273 59.5452 17.96273 L 17.407630000000005 17.96273 C 16.026160000000004 17.96273 14.920750000000005 17.55455 14.920750000000005 17.0441 C 14.920750000000005 16.53388 16.025930000000006 16.12547 17.407630000000005 16.12547 L 59.407050000000005 16.12547 C 60.788520000000005 16.07445 62.031960000000005 16.48262 62.031960000000005 17.0441 z M 14.09197 11.32894 L 14.09197 7.195469999999999 C 14.09197 6.378889999999999 15.888 5.664579999999999 18.236620000000002 5.664579999999999 L 58.1637 5.664579999999999 C 60.37429 5.664579999999999 62.30835 6.327869999999999 62.30835 7.195469999999999 L 62.30835 11.32894 C 62.30835 12.14552 60.512319999999995 12.859829999999999 58.1637 12.859829999999999 L 18.236620000000002 12.859829999999999 C 15.888000000000002 12.859829999999999 14.091970000000002 12.196539999999999 14.091970000000002 11.32894 z M 19.20375 10.97157 L 57.19667 10.97157 L 57.19667 7.55264 L 19.20375 7.55264 z M 79.02526 32.30219 L 78.887 40.05868 C 78.887 41.64059 75.98579 41.742630000000005 75.4332 41.742630000000005 C 74.60432 41.742630000000005 73.63717 41.64059 72.80829 41.38548000000001 L 65.90046 39.24233000000001 L 59.26893 41.28344000000001 C 58.57808 41.487530000000014 57.472899999999996 41.79366000000001 56.229459999999996 41.79366000000001 C 54.70972 41.79366000000001 53.189989999999995 41.38548000000001 52.913689999999995 40.568900000000006 C 52.913689999999995 40.517880000000005 52.913689999999995 40.517880000000005 52.913689999999995 40.466860000000004 L 52.913689999999995 38.935970000000005 L 6.769549999999995 38.935970000000005 C 3.0392699999999953 38.935970000000005 -0.000010000000004950493 37.81326000000001 -0.000010000000004950493 36.435430000000004 L -0.000010000000004950493 2.500530000000005 C -0.000010000000004950493 1.1227100000000048 3.039459999999995 -0.00000999999999518053 6.769549999999995 -0.00000999999999518053 L 71.01209999999999 -0.00000999999999518053 C 74.74237999999998 -0.00000999999999518053 77.78165999999999 1.122700000000005 77.78165999999999 2.500530000000005 L 77.78165999999999 21.636750000000006 C 79.85397999999999 22.197990000000008 81.51193999999998 22.963550000000005 82.75518999999998 23.830930000000006 C 86.89983999999998 26.688620000000007 85.10380999999998 30.209590000000006 79.02490999999999 32.301950000000005 z M 78.19632 24.74979 C 77.09114 23.98423 75.43314 23.32095 73.49908 22.86175 C 73.08452000000001 22.759710000000002 72.67020000000001 22.70868 72.3939 22.606640000000002 C 72.25564 22.606640000000002 72.11761 22.55562 71.97934000000001 22.55562 C 71.42675000000001 22.453580000000002 71.01219 22.40255 70.45960000000001 22.300510000000003 C 70.45960000000001 22.300510000000003 70.45960000000001 22.300510000000003 70.32134 22.300510000000003 C 67.42013 21.943360000000002 64.10437 21.943360000000002 61.20315000000001 22.351530000000004 L 61.064890000000005 22.351530000000004 C 60.5123 22.453570000000003 59.95971000000001 22.504600000000003 59.407120000000006 22.657660000000003 C 54.709880000000005 23.576290000000004 52.084970000000006 25.362280000000002 52.084970000000006 27.199300000000004 L 52.084970000000006 27.199300000000004 L 52.084970000000006 27.199300000000004 C 52.084970000000006 28.015880000000003 52.63756000000001 28.832230000000003 53.742740000000005 29.648810000000005 C 54.01903000000001 29.852900000000005 54.29533000000001 30.005960000000005 54.70989 30.210050000000006 C 54.848150000000004 30.261070000000007 54.848150000000004 30.312090000000005 54.986180000000004 30.363120000000006 C 55.26247000000001 30.516190000000005 55.53877000000001 30.618230000000004 55.81506 30.720270000000006 C 55.953320000000005 30.771290000000008 55.953320000000005 30.771290000000008 56.091350000000006 30.822310000000005 C 56.50591000000001 30.975380000000005 56.920230000000004 31.128440000000005 57.334790000000005 31.230490000000007 L 57.47305000000001 31.281510000000008 C 57.88761000000001 31.383550000000007 58.163900000000005 31.48560000000001 58.578230000000005 31.587640000000007 L 58.71649000000001 31.63866000000001 C 58.85475000000001 31.63866000000001 58.85475000000001 31.68968000000001 58.99278000000001 31.68968000000001 C 59.13104000000001 31.68968000000001 59.26907000000001 31.74070000000001 59.40734000000001 31.74070000000001 C 59.545600000000015 31.791720000000012 59.821900000000014 31.791720000000012 59.959930000000014 31.84274000000001 C 63.137430000000016 32.40398000000001 66.72949000000001 32.50603000000001 70.18352000000002 32.14887000000001 C 70.32178000000002 32.14887000000001 70.59808000000001 32.09785000000001 70.73611000000001 32.09785000000001 C 70.87437000000001 32.09785000000001 70.87437000000001 32.09785000000001 71.01240000000001 32.04683000000001 C 71.15066000000002 32.04683000000001 71.28869000000002 31.995810000000006 71.42696000000001 31.995810000000006 C 71.84152 31.944790000000005 72.25584 31.842740000000006 72.67040000000001 31.791720000000005 C 73.08496000000001 31.689680000000006 73.49928000000001 31.638650000000005 73.77558000000002 31.536610000000007 C 74.19014000000001 31.434570000000008 74.46643000000002 31.332520000000006 74.88076000000002 31.230480000000007 C 79.85429000000002 29.648570000000007 81.51229000000002 26.943950000000008 78.19653000000002 24.74976000000001 z M 52.91377 36.94588 L 52.91377 33.32285 L 17.40773 33.32285 C 16.02626 33.32285 14.920850000000002 32.91467 14.920850000000002 32.40422 C 14.920850000000002 31.894000000000002 16.026030000000002 31.485590000000002 17.40773 31.485590000000002 L 50.70339 31.485590000000002 L 50.70339 31.485590000000002 C 50.565129999999996 31.383550000000003 50.427099999999996 31.332520000000002 50.1508 31.230480000000004 C 50.012539999999994 31.179460000000002 49.874509999999994 31.128440000000005 49.874509999999994 31.077410000000004 C 49.59821999999999 30.975370000000005 49.45994999999999 30.822300000000006 49.183659999999996 30.669230000000002 L 49.045399999999994 30.61821 C 48.76910999999999 30.41412 48.49280999999999 30.21003 48.216519999999996 29.95492 L 48.216519999999996 29.95492 C 47.66392999999999 29.39368 47.24937 28.83221 46.973079999999996 28.270970000000002 L 17.407709999999994 28.270970000000002 C 16.026239999999994 28.270970000000002 14.920829999999995 27.86279 14.920829999999995 27.35234 C 14.920829999999995 26.84212 16.026009999999996 26.43371 17.407709999999994 26.43371 L 46.973079999999996 26.43371 C 47.11134 26.07656 47.24937 25.7194 47.52567 25.36202 C 48.216519999999996 24.59646 49.18344 23.882150000000003 50.42688 23.26989 L 17.40757 23.26989 C 16.0261 23.26989 14.92069 22.86171 14.92069 22.35126 C 14.92069 21.84104 16.02587 21.43263 17.40757 21.43263 L 55.95309 21.43263 C 56.229380000000006 21.38161 56.505680000000005 21.33059 56.78197 21.22854 C 57.33456 21.1265 57.88715 21.024449999999998 58.578 20.92241 L 58.716260000000005 20.92241 C 60.92685 20.56526 63.413500000000006 20.41219 65.90038000000001 20.41219 C 68.24900000000001 20.41219 70.45959000000002 20.56526 72.53191000000001 20.871389999999998 L 72.53191000000001 20.871389999999998 L 72.53191000000001 2.5007199999999976 C 72.53191000000001 2.1435699999999978 71.84106000000001 1.8884599999999976 70.87414000000001 1.8884599999999976 L 6.769750000000016 1.8884599999999976 C 5.802600000000016 1.8884599999999976 5.111980000000016 2.1435699999999978 5.111980000000016 2.5007199999999976 L 5.111980000000016 36.28251999999999 C 5.111980000000016 36.63966999999999 5.802830000000016 36.89477999999999 6.769750000000016 36.89477999999999 L 52.913890000000016 36.89477999999999 z M 73.91352 33.62899 C 73.77526 33.62899 73.77526 33.62899 73.63723 33.68001 C 73.63723 33.68001 73.49897 33.68001 73.49897 33.731030000000004 L 73.36071 33.731030000000004 C 73.08442 33.782050000000005 72.80812 33.782050000000005 72.53183 33.833070000000006 C 72.39357 33.833070000000006 72.39357 33.833070000000006 72.25554 33.88409000000001 C 72.11728 33.88409000000001 71.97925 33.93511000000001 71.84098 33.93511000000001 C 71.84098 33.93511000000001 71.84098 33.93511000000001 71.70272 33.93511000000001 C 71.70272 33.93511000000001 71.70272 33.93511000000001 71.56446 33.93511000000001 C 71.4262 33.93511000000001 71.4262 33.93511000000001 71.28817 33.98613000000001 L 71.14990999999999 33.98613000000001 C 71.01164999999999 33.98613000000001 70.87361999999999 33.98613000000001 70.73535 34.03715000000001 C 70.59709 34.03715000000001 70.32079 34.08817000000001 70.0445 34.08817000000001 C 69.90624 34.08817000000001 69.62994 34.13919000000001 69.49191 34.13919000000001 L 69.49191 34.13919000000001 L 69.49191 34.13919000000001 C 69.21562 34.13919000000001 68.93932000000001 34.190210000000015 68.52476 34.190210000000015 C 68.3865 34.190210000000015 68.1102 34.190210000000015 67.97217 34.241230000000016 L 67.83391 34.241230000000016 C 67.69565 34.241230000000016 67.69565 34.241230000000016 67.55762 34.241230000000016 L 67.55762 34.241230000000016 C 67.41936 34.241230000000016 67.41936 34.241230000000016 67.28133 34.241230000000016 C 66.86677 34.241230000000016 66.45245 34.241230000000016 66.17614999999999 34.241230000000016 L 66.17614999999999 34.241230000000016 L 66.17614999999999 34.241230000000016 C 66.03788999999999 34.241230000000016 66.03788999999999 34.241230000000016 65.89985999999999 34.241230000000016 C 65.76159999999999 34.241230000000016 65.76159999999999 34.241230000000016 65.62356999999999 34.241230000000016 L 65.62356999999999 34.241230000000016 L 65.62356999999999 34.241230000000016 C 65.20900999999999 34.241230000000016 64.65641999999998 34.241230000000016 64.2421 34.190210000000015 L 64.2421 34.190210000000015 L 64.2421 34.190210000000015 L 64.2421 34.190210000000015 L 64.10383999999999 34.190210000000015 L 63.96557999999999 34.190210000000015 C 62.16954999999999 34.13919000000001 60.373519999999985 33.93510000000001 58.853779999999986 33.67999000000002 L 58.853779999999986 33.67999000000002 L 58.853779999999986 33.67999000000002 C 58.715519999999984 33.62897000000002 58.439219999999985 33.62897000000002 58.301189999999984 33.577950000000016 L 58.301189999999984 33.577950000000016 L 58.16292999999998 39.14026000000001 L 64.37989999999998 37.201200000000014 C 64.79445999999997 37.048130000000015 65.48507999999998 36.99711000000001 66.03766999999998 36.99711000000001 C 66.59025999999997 36.99711000000001 67.28110999999998 37.048130000000015 67.69543999999998 37.201200000000014 L 73.91240999999998 39.14026000000001 z" stroke-linecap="round" />
</g>
</svg>